<svg xmlns="http://www.w3.org/2000/svg" viewBox="255 155 1965 1675">
<g transform="translate(0,1824) scale(0.1,-0.1)">
<path d="M9257 10593 c-3 -5139 -4 -5463 -20 -5543 -83 -404 -294 -728 -611
-942 -168 -112 -279 -158 -546 -224 -102 -25 -228 -62 -280 -81 -619 -230
-1046 -766 -1144 -1434 -14 -90 -16 -233 -16 -908 l0 -801 3973 3 c4331 3
4018 -1 4455 57 1011 134 2013 501 2932 1073 492 306 882 618 1316 1051 423
423 738 816 1046 1306 623 989 1039 2214 1152 3395 42 428 46 1041 12 1443
-133 1534 -646 2915 -1512 4068 -373 498 -840 980 -1327 1372 -1180 951 -2622
1515 -4122 1612 -103 6 -1072 10 -2732 10 l-2573 0 -3 -5457z" fill="#DB9A02"/>
<path d="M4345
3314 c-299 -53 -553 -190 -767 -412 -176 -183 -302 -428 -355 -692 -25 -121
-24 -393 1 -515 78 -378 290 -689 610 -896 361 -234 850 -279 1252 -115 315
128 578 379 725 691 97 205 135 396 126 629 -19 488 -259 891 -680 1141 -213
127 -437 186 -702 184 -71 0 -166 -7 -210 -15z m416 -803 c166 -64 303 -202
359 -364 30 -86 37 -230 16 -321 -48 -203 -218 -380 -412 -430 -80 -21 -228
-21 -308 0 -183 47 -342 200 -401 387 -30 93 -34 229 -10 321 52 198 225 371
421 421 87 22 262 14 335 -14z" fill="#DB9A02" fill-rule="evenodd"/>
</g>
<path d="M1300.00,512.00 L1720.00,512.00 L1720.00,556.00 L1300.00,556.00 Z M1300.00,512.00 L1270.00,534.00 L1300.00,556.00 Z M1720.00,512.00 L1750.00,534.00 L1720.00,556.00 Z M1473.00,552.00 L1547.00,552.00 L1547.00,942.00 L1473.00,942.00 Z M1451.00,942.00 L1569.00,942.00 L1569.00,964.00 L1451.00,964.00 Z M1451.00,942.00 L1431.00,953.00 L1451.00,964.00 Z M1569.00,942.00 L1589.00,953.00 L1569.00,964.00 Z" fill="#ffffff"/>
<path d="M1162.74,1032.94 L1312.23,1481.40 L1367.26,1463.06 L1217.77,1014.60 Z M1338.68,1476.23 L1526.28,1071.01 L1506.32,1061.77 L1318.72,1466.99 Z M1477.38,1078.57 L1664.99,1483.80 L1717.62,1459.43 L1530.01,1054.20 Z M1690.69,1475.71 L1840.18,1027.25 L1819.31,1020.29 L1669.82,1468.75 Z M1222.51,1028.83 L1188.04,1017.13 L1167.49,1047.17 Z M1519.98,1084.62 L1519.24,1060.04 L1500.02,1075.38 Z M1835.44,1041.48 L1831.96,1017.13 L1814.56,1034.52 Z" fill="#ffffff"/>
</svg>
