<svg xmlns="http://www.w3.org/2000/svg" viewBox="0 0 64 64" width="64" height="64" shape-rendering="crispEdges">
  <!-- Carbon Black base — sharp octagon body -->
  <polygon points="12,0 52,0 64,12 64,52 52,64 12,64 0,52 0,12" fill="#242423"/>
  <!-- Inner Dry Sage circuit accent lines -->
  <line x1="8" y1="32" x2="18" y2="32" stroke="#becca4" stroke-width="1.5"/>
  <line x1="46" y1="32" x2="56" y2="32" stroke="#becca4" stroke-width="1.5"/>
  <line x1="32" y1="8" x2="32" y2="18" stroke="#becca4" stroke-width="1.5"/>
  <line x1="32" y1="46" x2="32" y2="56" stroke="#becca4" stroke-width="1.5"/>
  <!-- Dark Goldenrod D letterform — geometric straight lines -->
  <path d="M20 18 L20 46 L34 46 Q48 46 48 32 Q48 18 34 18 Z" fill="none" stroke="#ad810b" stroke-width="3.5" stroke-linejoin="miter"/>
  <path d="M20 18 L20 46" stroke="#ad810b" stroke-width="3.5"/>
  <!-- Ash Grey inner fill line -->
  <path d="M26 24 L26 40 L34 40 Q41 40 41 32 Q41 24 34 24 Z" fill="#c5d3cc" opacity="0.5"/>
  <!-- Corner tick marks — mechanical precision marks -->
  <line x1="0" y1="20" x2="6" y2="20" stroke="#ad810b" stroke-width="1.2"/>
  <line x1="58" y1="20" x2="64" y2="20" stroke="#ad810b" stroke-width="1.2"/>
  <line x1="0" y1="44" x2="6" y2="44" stroke="#ad810b" stroke-width="1.2"/>
  <line x1="58" y1="44" x2="64" y2="44" stroke="#ad810b" stroke-width="1.2"/>
</svg>
